# xmcd CD database file
#
# Track frame offsets:
#	150
#	28332
#	53537
#	79580
#	109605
#	137195
#	170895
#	194222
#	219000
#	251442
#
# Disc length: 3789 seconds
#
# Revision: 0
# Processed by: cddbd v1.5.1PL0 Copyright (c) Steve Scherf et al.
# Submitted via: CDex 1.50
#
DISCID=8b0ecb0a
DTITLE=Jia Peng Fang - 華弦
DYEAR=1994
DGENRE=Acoustic
TTITLE0=月夜
TTITLE1=雨打芭蕉
TTITLE2=懐郷曲
TTITLE3=陽関三畳
TTITLE4=漢宮秋月
TTITLE5=草原上
TTITLE6=流波曲
TTITLE7=月芽五更
TTITLE8=孔雀飛舞
TTITLE9=陜北抒懐
EXTD=YEAR: 1994
EXTT0=
EXTT1=
EXTT2=
EXTT3=
EXTT4=
EXTT5=
EXTT6=
EXTT7=
EXTT8=
EXTT9=
PLAYORDER=
